Coordinates
version=1
nRows=13
nColumns=38
inDegrees=no

Units are S.I. units (second, meters, Newtons, ...)
If the header above contains a line with 'inDegrees', this indicates whether rotational values are in degrees (yes) or radians (no).

endheader
time	pelvis_tilt	pelvis_list	pelvis_rotation	pelvis_tx	pelvis_ty	pelvis_tz	hip_flexion_r	hip_adduction_r	hip_rotation_r	knee_angle_r	ankle_angle_r	subtalar_angle_r	mtp_angle_r	hip_flexion_l	hip_adduction_l	hip_rotation_l	knee_angle_l	ankle_angle_l	subtalar_angle_l	mtp_angle_l	lumbar_extension	lumbar_bending	lumbar_rotation	arm_flex_r	arm_add_r	arm_rot_r	elbow_flex_r	pro_sup_r	wrist_flex_r	wrist_dev_r	arm_flex_l	arm_add_l	arm_rot_l	elbow_flex_l	pro_sup_l	wrist_flex_l	wrist_dev_l
3.725	0.331604	-0.00931519	0.601906	0.465488	1.06836	-0.228737	0.972556	0.317017	-0.0488891	0.409656	-0.516754	0	0	-0.134753	-0.02172	-0.388668	0.0913632	-0.356913	0	0	-0.51318	0.228257	-0.801447	-0.425355	-0.338433	-1.54865	0.0640164	1.39783	0	0	1.49128	0.298166	0.893262	0.574463	1.47117	0	0
3.73333	0.330269	0.00500541	0.626235	0.471089	1.06479	-0.231244	0.953341	0.311751	-0.0715202	0.400184	-0.525604	0	0	-0.128673	-0.0280572	-0.401822	0.0976954	-0.373761	0	0	-0.511757	0.219972	-0.806568	-0.438166	-0.33475	-1.54704	0.0620218	1.38045	0	0	1.48492	0.322987	0.901111	0.634925	1.4744	0	0
3.74167	0.327127	0.0195331	0.649746	0.476983	1.06036	-0.233711	0.934038	0.307152	-0.0877393	0.389965	-0.537727	0	0	-0.123962	-0.0299031	-0.384822	0.101483	-0.380657	0	0	-0.509449	0.210195	-0.811295	-0.451638	-0.330848	-1.54417	0.0612102	1.36999	0	0	1.47847	0.346516	0.905867	0.696362	1.47075	0	0
3.75	0.31377	0.0405972	0.680043	0.481081	1.05497	-0.236631	0.920856	0.287162	-0.10247	0.38691	-0.549141	0	0	-0.114774	-0.0144526	-0.330838	0.110357	-0.374206	0	0	-0.503491	0.193546	-0.82745	-0.462341	-0.321777	-1.50498	0.068004	1.31402	0	0	1.4741	0.365468	0.915047	0.759978	1.45757	0	0
3.75833	0.307741	0.0638663	0.707398	0.485395	1.04998	-0.239516	0.896684	0.272075	-0.11139	0.37979	-0.557481	0	0	-0.11033	-0.00295519	-0.276974	0.148603	-0.337831	0	0	-0.506071	0.178124	-0.835739	-0.473886	-0.314549	-1.50513	0.0682696	1.30854	0	0	1.46604	0.390304	0.915606	0.818526	1.45939	0	0
3.76667	0.307254	0.0873035	0.731008	0.490641	1.04504	-0.241935	0.864444	0.264024	-0.112024	0.369196	-0.562407	0	0	-0.10338	0.00156669	-0.249378	0.212323	-0.287391	0	0	-0.51467	0.164512	-0.841555	-0.484024	-0.310217	-1.5095	0.0643115	1.31107	0	0	1.46399	0.401345	0.930514	0.883196	1.4765	0	0
3.775	0.311864	0.108146	0.751577	0.496261	1.03992	-0.244317	0.828352	0.262333	-0.110824	0.356197	-0.569573	0	0	-0.0989614	-0.000542285	-0.227747	0.277547	-0.229988	0	0	-0.5258	0.155118	-0.839371	-0.496004	-0.306662	-1.5076	0.0583753	1.29493	0	0	1.45961	0.414038	0.93963	0.949292	1.48426	0	0
3.78333	0.309377	0.129153	0.774967	0.501263	1.03407	-0.246972	0.799011	0.254089	-0.106636	0.345124	-0.582105	0	0	-0.0918661	0.00179522	-0.211372	0.333257	-0.172957	0	0	-0.53186	0.143295	-0.835543	-0.508106	-0.295122	-1.48319	0.0638081	1.27653	0	0	1.44942	0.433203	0.94101	1.0156	1.49267	0	0
3.79167	0.301782	0.151938	0.797905	0.505861	1.02791	-0.250106	0.769469	0.242206	-0.100971	0.332351	-0.600771	0	0	-0.0892411	0.0187609	-0.181665	0.364678	-0.163915	0	0	-0.536089	0.128204	-0.836398	-0.519084	-0.290577	-1.48253	0.0591231	1.29973	0	0	1.4392	0.447311	0.940996	1.08169	1.50223	0	0
3.8	0.300881	0.173286	0.818607	0.510968	1.02231	-0.253326	0.732943	0.236345	-0.0981123	0.316315	-0.615353	0	0	-0.0915253	0.0226845	-0.184014	0.405266	-0.116488	0	0	-0.544972	0.118421	-0.833463	-0.524286	-0.285058	-1.4544	0.0579991	1.25446	0	0	1.42903	0.458585	0.941467	1.14813	1.50879	0	0
3.80833	0.296107	0.194233	0.837659	0.515964	1.01648	-0.256585	0.698845	0.229005	-0.0895673	0.301483	-0.625113	0	0	-0.0942415	0.0323106	-0.186282	0.436802	-0.0832057	0	0	-0.55119	0.106374	-0.829815	-0.531062	-0.283127	-1.43341	0.0488202	1.24879	0	0	1.41871	0.465407	0.944582	1.22002	1.51188	0	0
3.81667	0.294267	0.211884	0.852281	0.520601	1.01097	-0.260037	0.664228	0.226301	-0.0760701	0.286079	-0.629071	0	0	-0.100275	0.040396	-0.1885	0.460959	-0.0573852	0	0	-0.558143	0.0992062	-0.814966	-0.53625	-0.27905	-1.41044	0.0422353	1.21525	0	0	1.40279	0.477823	0.94014	1.28956	1.52359	0	0
3.825	0.285719	0.227882	0.872379	0.524054	1.00542	-0.263469	0.638317	0.215417	-0.0620974	0.276395	-0.623629	0	0	-0.100725	0.0503819	-0.198148	0.484679	-0.0339752	0	0	-0.559959	0.0914654	-0.807905	-0.535995	-0.276766	-1.3909	0.0339244	1.18816	0	0	1.38547	0.483873	0.936614	1.35704	1.52547	0	0
